<?xml version="1.0" encoding="UTF-8" standalone="no"?><svg width="1465" height="1148" viewBox="0 0 1465 1148" xmlns="http://www.w3.org/2000/svg"><title>Slice</title><defs><radialGradient fx="50%" fy="50%" id="a"><stop stop-color="#5C5C5C" offset="0%"/><stop stop-color="#5E5E5E" offset="71%"/><stop stop-color="#656565" offset="97%"/><stop stop-color="#666" offset="100%"/></radialGradient></defs><g fill="none" fill-rule="evenodd"><g transform="translate(441 127)"><rect fill="#5F5F5F" fill-rule="nonzero" x="33.76" y=".45" width="326.57" height="987.97" rx="163.28"/><path d="M360.33 163.74l.75 126.73.43 126.73.36 253.46-.14 126.73v27.72l-.1 4a164.66 164.66 0 0 1-3.85 31.66 161.85 161.85 0 0 1-25.56 58.06 165.13 165.13 0 0 1-45.61 44 163.35 163.35 0 0 1-58.79 23.44 167.2 167.2 0 0 1-31.68 2.73c-2.65-.07-5.3-.08-7.94-.29-1.32-.08-2.64-.15-4-.25l-4-.4-2-.2-2-.27-3.93-.54-3.91-.69c-1.31-.22-2.61-.46-3.9-.75a161.8 161.8 0 0 1-58.08-24.54 164.16 164.16 0 0 0 28 14.69c4.86 2 9.87 3.71 14.89 5.28 2.55.69 5.06 1.48 7.63 2.06l3.85.92 3.87.79c1.29.28 2.58.5 3.88.7l3.9.64 3.92.5 2 .25 2 .18 3.94.35c1.31.09 2.62.14 3.94.21 2.63.18 5.26.15 7.89.2a165.65 165.65 0 0 0 31.35-3.05c75.036-14.488 129.781-79.386 131.42-155.79l.1-3.93v-27.68l-.14-126.73.36-253.46.43-126.73.72-126.73z" fill="#2A2A2A" fill-rule="nonzero"/><circle fill="#5F5F5F" fill-rule="nonzero" transform="rotate(-45 197.047 314.115)" cx="197.047" cy="314.115" r="138.74"/><path d="M197.05 180.88c63.566.014 118.27 44.93 130.656 107.277 12.386 62.347-20.995 124.762-79.728 149.073-58.733 24.311-126.46 3.748-161.762-49.114-35.302-52.862-28.346-123.3 16.614-168.236a132.36 132.36 0 0 1 94.22-39zm0-11c-79.662 0-144.24 64.578-144.24 144.24s64.578 144.24 144.24 144.24 144.24-64.578 144.24-144.24-64.578-144.24-144.24-144.24z" fill="#3C3C3C" fill-rule="nonzero"/><path d="M106.52 961.05a164.61 164.61 0 0 1-55.07-61.54 161.94 161.94 0 0 1-14.16-39.18 165.19 165.19 0 0 1-3.2-20.64 165.42 165.42 0 0 1-.61-10.43c-.08-3.49-.08-7-.09-10.44L33.25 652 33 318.2l.05-83.44.03-41.76v-20.81c0-6.94-.06-13.94.49-20.9C39.064 79.243 91.129 19.312 161.7 3.8A160.19 160.19 0 0 1 182.37.64 164.22 164.22 0 0 1 282.45 24.1a164.37 164.37 0 0 1 57.21 59.69 162.71 162.71 0 0 1 15.5 38.65 168 168 0 0 1 3.9 20.48 170.49 170.49 0 0 1 1.27 20.82 172 172 0 0 0-1.36-20.8 167.13 167.13 0 0 0-4-20.45A162 162 0 0 0 339.33 84a163.93 163.93 0 0 0-57.28-59.23 163.14 163.14 0 0 0-99.6-23.17 158.25 158.25 0 0 0-20.54 3.17c-70.03 15.541-121.62 75.11-127 146.64-.54 6.9-.46 13.83-.45 20.8v145.95L34.27 652l-.14 166.82v10.42c0 3.42.27 6.94.57 10.39a161.7 161.7 0 0 0 17 59.71 164.52 164.52 0 0 0 54.82 61.71z" fill="#ADADAD" fill-rule="nonzero"/><path d="M338.73 287.06a159.13 159.13 0 0 0-5.83-20.38 143 143 0 0 0-33.88-53A159.1 159.1 0 0 0 283.07 200a157.76 157.76 0 0 0-17.76-11.25 153.49 153.49 0 0 0-19.19-8.52 149.07 149.07 0 0 0-20.21-5.61 146.85 146.85 0 0 0-20.79-2.62 152.33 152.33 0 0 0-20.93.46 156.75 156.75 0 0 0-20.63 3.5 153.75 153.75 0 0 0-19.88 6.47 150.19 150.19 0 0 0-18.68 9.31 147 147 0 0 0-17.15 11.92A151.38 151.38 0 0 0 92.6 218a143.67 143.67 0 0 0-23.41 34.47 152.21 152.21 0 0 0-7.71 19.41 147.88 147.88 0 0 0-4.76 20.34A149.81 149.81 0 0 0 55 313a151.67 151.67 0 0 0 1.31 20.86 158.49 158.49 0 0 0 4.34 20.47A152.52 152.52 0 0 0 67.93 374a146 146 0 0 0 10 18.38 151.14 151.14 0 0 0 12.66 16.73 154.12 154.12 0 0 0 15 14.7 159.51 159.51 0 0 0 17 12.36 158.18 158.18 0 0 0 18.65 9.76 150.2 150.2 0 0 0 19.87 7 147.38 147.38 0 0 0 20.73 4 150.55 150.55 0 0 0 21.13.93 159 159 0 0 0 21.1-2.09 143.54 143.54 0 0 1-83.71-7.8c-54.668-22.636-90.2-76.105-89.896-135.273.305-59.169 36.386-112.269 91.284-134.341 54.899-22.072 117.695-8.726 158.872 33.764a143.46 143.46 0 0 1 38.11 74.94z" fill="#ADADAD" fill-rule="nonzero"/><path d="M338.73 287.06a139.28 139.28 0 0 1-7.51 83.84 141.63 141.63 0 0 1-31.94 47 141.48 141.48 0 0 1-22.35 17.75 137.65 137.65 0 0 1-52.83 20.15 151.73 151.73 0 0 0 51.51-22.13 147.47 147.47 0 0 0 61.53-90.57 151.88 151.88 0 0 0 1.59-56.04z" fill="#282828" fill-rule="nonzero"/><path d="M175.49 80.31h43.11" stroke="#383838" stroke-width="6" stroke-linecap="round" stroke-linejoin="round"/><circle stroke="#383838" stroke-width="2" fill="url(#a)" fill-rule="nonzero" cx="197.05" cy="549.58" r="53.9"/><circle stroke="#383838" stroke-width="3.92" cx="197.05" cy="549.58" r="27.47"/><path d="M169.82 545.91s5.78-10.29 17.45-10.29c11.67 0 18.18 18.18 36.92 18.18" stroke="#383838" stroke-width="3.92"/><circle fill="#383838" fill-rule="nonzero" cx="183.98" cy="549.16" r="3.54"/></g><circle stroke="#FD603A" stroke-width="3" cx="637.5" cy="205.5" r="61"/><path d="M40.499 91.5H576.5" stroke="#FD603A" stroke-width="3" stroke-linecap="square"/><text font-family="Verdana" font-size="34" fill="#000"><tspan x="39" y="74">Pvr_KeyCode.APP</tspan></text><path d="M576.5 91.5l50.522 50.522" stroke="#FD603A" stroke-width="3" stroke-linecap="square"/><circle stroke="#FD603A" stroke-width="3" cx="637.5" cy="675.5" r="61"/><path d="M40.499 787.5H576.5" stroke="#FD603A" stroke-width="3" stroke-linecap="square"/><text font-family="Verdana" font-size="34" fill="#000"><tspan x="39" y="770">Pvr_KeyCode.HOME</tspan></text><path d="M576.5 787.5l50.522-50.522" stroke="#FD603A" stroke-width="3" stroke-linecap="square"/><circle stroke="#FD603A" stroke-width="3" cx="637.5" cy="435.5" r="61"/><path d="M33.5 331.5h543" stroke="#FD603A" stroke-width="3" stroke-linecap="square"/><text font-family="Verdana" font-size="34" fill="#000"><tspan x="33" y="314">Pvr_KeyCode.TOUCHPAD</tspan></text><path d="M575.5 331.5l45.573 45.573" stroke="#FD603A" stroke-width="3" stroke-linecap="square"/><circle stroke="#FD603A" stroke-width="3" cx="807.5" cy="385.5" r="61"/><path d="M913.577 297.5h492.911" stroke="#FD603A" stroke-width="3" stroke-linecap="square"/><text font-family="Verdana" font-size="34" fill="#000"><tspan x="980" y="280">Pvr_KeyCode.VOLUMEUP</tspan></text><path d="M912.5 297.5l-50.522 50.522" stroke="#FD603A" stroke-width="3" stroke-linecap="square"/><circle stroke="#FD603A" stroke-width="3" cx="807.5" cy="512.5" r="61"/><path d="M911.577 428.5h492.911" stroke="#FD603A" stroke-width="3" stroke-linecap="square"/><text font-family="Verdana" font-size="34" fill="#000"><tspan x="910" y="414">Pvr_KeyCode.VOLUMEDOWN</tspan></text><path d="M910.5 428.5l-50.522 50.522" stroke="#FD603A" stroke-width="3" stroke-linecap="square"/></g></svg>
