<?xml version="1.0" encoding="UTF-8" standalone="no"?><svg width="1435" height="576" viewBox="0 0 1435 576" xmlns="http://www.w3.org/2000/svg"><title>Slice</title><g fill="none" fill-rule="evenodd"><g transform="translate(28 41)"><path d="M29.312 59.79l148.799-23.643s49.767-4.528 139.75 36.722S437 160.4 437 160.4l-2.01 13.08L407.34 177l-97.02-49.299c-83.95-35.213-133.717-37.225-133.717-37.225L27 117.137" fill="#3C3C3C" fill-rule="nonzero"/><path d="M187.705 389s-14.096-7.986-23.627-21.044c-9.53-13.058-13.393-37.668-13.393-37.668L140 287.597s6.02-50.224 16.052-67.803c10.033-17.579 26.586-32.144 64.71-32.144 48.658 0 127.916-9.542 127.916-9.542l54.175-10.045s20.567-5.525 27.088-10.547c2.86-2.21 6.522-3.516 8.528-3.516 2.207 0 1.956.502 9.531.502M94 16l29-6.783L100.5 4C93 4 91 12.87 91 12.87L94 16z" fill="#1A1A1A" fill-rule="nonzero"/><path d="M86.264 24.471s.502-7.539 4.518-12.062c3.112-3.468 25.701-4.825 46.182-1.508 26.404 4.272 45.177 13.57 45.177 13.57s23.593 3.518 26.605 4.02c3.012.503 9.538 3.519 8.032 9.55-1.506 6.031-11.044 51.265-12.55 58.803-1.506 7.54-6.023 9.55-12.55 8.042-6.525-1.508-42.667-8.042-87.844-2.01C58.656 108.906 35.064 127 35.064 127L19 122.98l10.541-63.83s.502-10.052 24.597-20.606c21.535-9.45 30.119-10.052 30.119-10.052s2.007-.503 2.007-4.021z" fill="#000" fill-rule="nonzero"/><path d="M37 61.5L30 59c-3.35 3.25-6.2 6.95-8.5 11-2.45 4.35-4.65 8.85-6.5 13.5L11 119l16-1 10-56.5z" fill="#1A1A1A" fill-rule="nonzero"/><path d="M44.37 158.647C80.57 199.391 159 249.19 159 249.19L135.37 301s-59.125-39.738-99.044-77.967c-47.762-45.774-34.69-77.665-34.69-77.665L14.205 84s-9.452 30.08 30.165 74.647z" fill="#4D4D4D" fill-rule="nonzero"/><path d="M389 159.978s-11.55-24.634-84.372-78.428C231.808 27.756 139.4 24.237 139.4 24.237l-10.546-9.05S96.21 13.68 95.206 19.21c-1.005 5.53 1.858 7.993 4.52 8.546 2.51.503 6.127-.2 15.066 1.509 25.362 4.826 81.007 18.903 127.06 45.247C301.615 108.698 343.8 164 343.8 164L389 159.978z" fill="#000" fill-rule="nonzero"/><path fill="#1A1A1A" fill-rule="nonzero" d="M357.54 188L409 176.655 387.604 149l-45.598 7.597-3.006 7.091z"/><path d="M399 174v-5.424s22.5-4.017 36-10.043c12.9-5.725 12.5-7.533 12.5-7.533l4.5.15v13.409L399 174zM140.063 318.704s-1.89 7.712 15.023 12.752C161.752 333.42 172 337 172 337l-.497-82.154s-2.886-1.21-12.437-6.049c-5.97-3.024-9.452 3.528-9.452 3.528l-9.55 66.38z" fill="#1A1A1A" fill-rule="nonzero"/><path d="M514 162.031L486.343 157c-20.617 3.522-117.164 20.627-117.164 20.627l-8.548.503s-25.142 3.02-70.399 10.566c-54.307 9.056-69.544 6.792-99.564 21.13-22.125 10.565-28.662 40.249-28.662 40.249l7.542 4.024a340.711 340.711 0 0 0-3.017 45.28c0 24.702 2.515 40.248 2.515 40.248L161 336.61s1.006 23.143 15.085 40.751C188.908 393.41 206.76 400 206.76 400" fill="#4D4D4D" fill-rule="nonzero"/><path d="M419.31 172.137c7.588-.502 10.116.502 5.059 1.004-5.867.603-38.44 6.53-46.026 7.534-7.586 1.004-11.127-.502-1.517-2.01 0 0 34.898-6.026 42.485-6.528z" fill="#000" fill-rule="nonzero"/><ellipse fill="#000" fill-rule="nonzero" transform="rotate(-10.19 399 180)" cx="399" cy="180" rx="23" ry="13"/><path d="M401.3 192.795c12.502-2.247 21.607-9.797 20.337-16.864-1.27-7.066-12.435-10.973-24.937-8.726s-21.607 9.797-20.337 16.864c1.27 7.066 12.435 10.973 24.937 8.726z" stroke="#333" stroke-width="3" stroke-dasharray="1.989943542485335,1.989943542485335"/><ellipse fill="#4D4D4D" fill-rule="nonzero" transform="rotate(-10.19 403 183)" cx="403" cy="183" rx="23" ry="13"/><path d="M405.3 195.795c12.502-2.247 21.607-9.797 20.337-16.864-1.27-7.066-12.435-10.973-24.937-8.726s-21.607 9.797-20.337 16.864c1.27 7.066 12.435 10.973 24.937 8.726z" stroke="#333" stroke-width="3" stroke-dasharray="1.989943542485335,1.989943542485335"/><path d="M513.8 160s27.605 3.017 39.652 7.542C565.498 172.068 566 179.107 566 179.107S274.378 432.03 267.954 434.694c-6.425 2.665-30.718-12.721-45.776-21.27-15.058-8.548-28.61-22.677-34.634-39.27C181.521 357.56 176 336.442 176 308.334c0-37.26 8.533-75.977 38.649-93.526 28.108-16.342 77.799-17.65 187.22-37.21 0 0 90.347-15.587 111.93-17.598z" fill="#FFF" fill-rule="nonzero"/><path d="M299.388 448c-14.578 0-18.7-9.005-36.194-15.595C235.044 421.841 227 385.068 227 325.708c0-30.184 2.212-71.988 25.637-98.6 18.6-21.127 37.2-11.57 73.897-19.115 0 0 40.819-12.023 110.593-23.644 72.388-12.073 111.598-13.08 111.598-13.08l7.239-3.269s27.95 2.314 44.036 15.393L299.388 448z" fill="#B1B0B0" fill-rule="nonzero"/><path d="M453.346 419.283c6.727-1.654 12.5-3.108 17.017-4.161 30.57-7.219 103.657-26.219 121.527-46.772C610.01 347.545 620 295.66 620 267.787c0-17.345-1.907-74.745-26.303-86.025-6.827-3.158-19.175-4.762-36.794-4.762-27.609 0-64.554 3.96-104.008 11.13-61.642 11.178-145.722 28.223-164.194 46.671C272.136 251.344 263 290.998 263 346.493c0 50.832 5.02 74.645 19.075 90.987 4.367 5.064 13.804 7.52 28.813 7.52 38.601 0 103.606-16.092 142.458-25.717z" fill="#898A8A" fill-rule="nonzero"/><path d="M556.93 179.011c-26.36 0-63.163 3.71-103.631 11.08-66.275 12.034-145.605 28.58-163.178 46.128-17.573 17.548-25.104 60.667-25.104 110.304s4.67 73.553 18.577 89.697c4.217 4.864 14.058 6.82 27.313 6.82 45.138 0 129.187-22.814 158.96-29.833 40.67-9.577 104.435-27.626 120.502-46.127 17.221-19.805 27.614-70.695 27.614-99.274 0-28.579-4.518-74.706-25.104-84.232-6.577-3.059-19.13-4.563-35.95-4.563zm.05-4.011c17.874 0 30.527 1.655 37.606 4.914 10.343 4.763 17.874 17.448 22.494 37.704 4.267 18.902 4.92 39.508 4.92 50.138 0 28.177-10.192 80.722-28.619 101.88-7.581 8.775-25.305 18.05-52.719 27.577-24.753 8.623-51.665 15.543-69.89 19.854-4.52 1.053-10.293 2.507-17.021 4.162C414.789 430.855 349.618 447 310.857 447c-15.665 0-25.556-2.707-30.326-8.223C266.071 422.031 261 397.865 261 346.473c0-26.273 2.008-49.136 6.025-68.038 4.469-21.008 11.247-36.2 20.234-45.124 8.485-8.474 29.824-17.047 65.17-26.172 25.557-6.619 57.34-13.287 100.167-21.058C492.161 178.96 529.214 175 556.98 175z" fill="#666" fill-rule="nonzero"/><ellipse fill="#000" fill-rule="nonzero" transform="rotate(-5.999 310 200.5)" cx="310" cy="200.5" rx="12" ry="2.5"/><ellipse fill="#FFF" fill-rule="nonzero" transform="rotate(-5.999 310 200.5)" cx="310" cy="200.5" rx="12" ry="2.5"/><ellipse fill="#000" fill-rule="nonzero" transform="rotate(-78.229 200.5 257.5)" cx="200.5" cy="257.5" rx="9.5" ry="5.5"/><ellipse fill="#FFF" fill-rule="nonzero" transform="rotate(-78.229 200.5 257.5)" cx="200.5" cy="257.5" rx="9.5" ry="5.5"/><ellipse stroke="#B1B0B0" stroke-width="2" fill="#FFF" fill-rule="nonzero" transform="rotate(-78.229 200.5 258.5)" cx="200.5" cy="258.5" rx="5.5" ry="3.5"/><ellipse fill="#000" fill-rule="nonzero" cx="341" cy="193.5" rx="2" ry="1"/><path d="M244.346 303.024c.517-3.51-.517-8.024-3.621-8.024s-3.621 1.003-4.656 5.015c-1.034 4.012-2.069 19.56-2.069 34.103 0 14.544 2.586 37.613 2.586 39.62 0 2.005 2.07 5.516 5.69 7.02 3.622 1.505 2.587-4.513 2.587-4.513s-2.069-26.079-2.586-40.623c0 0 1.552-29.087 2.069-32.598z" stroke="#666" stroke-width="4"/><path d="M244.346 303.024c.517-3.51-.517-8.024-3.621-8.024s-3.621 1.003-4.656 5.015c-1.034 4.012-2.069 19.56-2.069 34.103 0 14.544 2.586 37.613 2.586 39.62 0 2.005 2.07 5.516 5.69 7.02 3.622 1.505 2.587-4.513 2.587-4.513s-2.069-26.079-2.586-40.623c0 0 1.552-29.087 2.069-32.598z" fill="#898A8A" fill-rule="nonzero"/><path d="M239 313v-2"/><path fill="#000" fill-rule="nonzero" d="M241 312v-2.222l-2-.556V307M241 369l-4-2v-2M189 325.84c0 5.073 3.667 11.16 6.286 11.16 2.619 0 4.714-1.522 4.714-5.072v-15.725c0-9.13-4.19-14.203-6.286-14.203-2.095 0-4.714 1.014-4.714 6.087v17.754z"/><path d="M189 325.84c0 5.073 3.667 11.16 6.286 11.16 2.619 0 4.714-1.522 4.714-5.072v-15.725c0-9.13-4.19-14.203-6.286-14.203-2.095 0-4.714 1.014-4.714 6.087v17.754z" fill="#FFF" fill-rule="nonzero"/><path d="M129.65 231.693c6.3 2.417 15.2 10.674 19.35 17.924 5.5 9.567 11 10.07 11 10.07l-10.5 60.418s1.5 2.014-7 0-4-7.049-16-17.118c-12.5-10.473-14.5-10.07-14.5-10.07l12.5-61.425c1.25-.755 3.05-.604 5.15.201z" fill="#000" fill-rule="nonzero"/><path d="M202.938 259.857s.442.665-1.03-.87c-1.473-1.535 0-3.07-1.473-4.605-1.472-1.534-3.435 2.047-3.435 2.047" stroke="#B1B0B0" stroke-width="2" fill="#FFF" fill-rule="nonzero"/><path d="M199 258l1-1" stroke="#B1B0B0" stroke-width="2"/><path d="M128.5.645S143-3.389 160 8.715c17 12.102 27 14.624 27 14.624s-31.5 5.547-40.5 4.538c-9-1.008-40-24.206-47.5-24.206L128.5.645z" fill="#3C3C3C" fill-rule="nonzero"/></g><g transform="translate(763 73)"><path d="M188.01 107.387s12.817-2.417 40.853 4.834c15.62 4.029 41.815 21.512 40.052 24.977-1.441 2.74-36.847-2.417-36.847-2.417L180 116.25l8.01-8.863z" fill="#2B2C2F" fill-rule="nonzero"/><path d="M420 201s-24-12-63.2-17.6c-39.2-5.6-81.6-32-81.6-32L228 110.6l12-9.6 174.4 78.4L420 201z" fill="#2C2D2D" fill-rule="nonzero"/><path d="M387 179.84s-9.088-.642-13.074.16c0 0-49.427-33.671-82.909-49.705-33.482-16.034-62.979-29.662-49.426-14.43 13.552 15.232 14.19 20.122 38.185 37.68l-4.703-1.604s-30.294-22.448-55.007-44.093c-24.713-21.646-13.552-20.844-13.552-20.844s56.6 0 57.398.802C264.71 88.607 387 179.84 387 179.84z" fill="#4F5152" fill-rule="nonzero"/><path d="M276 151l-46.059-34.49s-22.548-15.893-28.004-25.667c-5.457-9.775-6.66-5.404-2.247-9.775.802-.794 19.579 5.484 34.504 11.92 15.647 6.755 22.307 11.205 22.307 11.205S212.61 86.631 208.597 89.81c-4.012 3.178 4.012 9.536 10.431 15.099 6.42 5.562 26.48 23.84 56.972 46.091z" fill="#616263" fill-rule="nonzero"/><path d="M192.632 79.608s-4.781 1.603 11.954 17.627c16.735 16.024 26.697 21.232 26.697 21.232s-23.51-17.226-30.682-28.443c-7.172-11.217 7.173-6.41 10.36-4.807 0 0 37.455 15.223 82.083 37.657C337.67 145.308 387 180 387 180L246.823 87.62 200.6 74l-6.295 3.205-1.674 2.403z" fill="#A7A7A7" fill-rule="nonzero"/><path d="M553.214 210s6.385-16.082 7.183-19.299c.798-3.216 1.596-6.433-3.193-8.845-4.788-2.413-32.162-13.992-79.09-29.913-46.927-15.922 30.407 37.954 30.407 37.954L553.214 210z" fill="#5E5E5D" fill-rule="nonzero"/><path d="M422 114s-6.217-19.93-13.391-42.252c-7.174-22.321-23.913-44.643-39.855-55.804C352.812 4.784 329.696 0 320.928 0c-8.769 0-32.682 3.189-51.812 16.741C249.986 30.294 246 38.266 246 38.266L327.304 85.3 422 114z" fill="#87898A" fill-rule="nonzero"/><path d="M549.78 212s4.798-14.354 7.198-20.734c2.399-6.38.8-8.772-7.198-11.962-7.997-3.19-65.578-25.519-92.769-31.898-27.19-6.38 92.77 64.594 92.77 64.594zM567.286 190.177s-3.993-2.384-9.582 10.334c-5.59 12.72-3.194 17.489-3.194 17.489l57.49-1.59-3.992-12.4-40.722-13.833z" fill="#2C2D2D" fill-rule="nonzero"/><path d="M579.083 192.547s-7.916-3.223-11.083-2.418c0 0 51.458 19.339 33.25 23.367-18.208 4.03-32.854.726-32.854.726L607.583 228 625 215.914s-15.042-15.31-45.917-23.367z" fill="#979899" fill-rule="nonzero"/><path d="M617.849 208.08s-20.737-11.112-39.082-15.08c0 0 62.212 22.222 35.094 26.19-27.118 3.969-45.861-4.84-45.861-4.84L596.314 243l37.487-21.429s3.19-4.761-15.952-13.492z" fill="#A3A4A5" fill-rule="nonzero"/><path d="M634.824 221.4s3.182-5.6-17.502-14.4c0 0 27.048 12.8 6.365 16-20.684 3.2-55.687-9.28-55.687-9.28L579.933 235l48.527-6.4 6.364-7.2z" fill="#E8E8E8" fill-rule="nonzero"/><path d="M207.18 108.14s7.153-2.422 16.692 12.912C233.41 136.386 235 138 235 138l-24.641-15.334-6.359-8.07 3.18-6.457z" fill="#313233" fill-rule="nonzero"/><path d="M353.162 379s39.762-7.506 66.908-33.057c27.147-25.55 63.875-81.443 2.396-126.157-61.48-44.715-99.005-51.102-146.911-67.87-47.906-16.768-71.06-39.924-67.867-43.916l-19.162 17.566L151 127.962 353.162 379z" fill="#424344" fill-rule="nonzero"/><path d="M164.023 138.232s-1.598-7.956-.8-10.342l24.77-19.89s-3.994 3.182 1.599 7.16c0 0 24.77 18.299 77.506 40.575 52.737 22.276 87.095 35.8 139.831 50.917C459.666 221.768 514 229.724 514 229.724L510.804 252s-59.928-2.387-159.807-36.597c-99.88-34.21-173.39-74.784-173.39-74.784l-13.584-2.387z" fill="#A7A7A7" fill-rule="nonzero"/><path d="M203 444s93.53-36.018 110.302-42.407c16.773-6.39 54.472-20.765 63.897-64.69 4.792-22.361 2.795-46.72-1.198-61.893-3.994-15.174-16.773-36.737-39.936-55.106-23.162-18.368-52.076-34.82-117.41-61.494-56.708-23.16-71.085-40.73-72.682-42.328C144.375 114.485 30 136.687 30 136.687L203 444z" fill="#BDBDBD" fill-rule="nonzero"/><path d="M111.957 163.379s21.534 12.746 27.915 16.729c6.38 3.983 75.77 39.831 87.733 133.834 3.03 23.66 3.828 41.345 3.19 57.357-1.675 44.611-19.062 62.615-25.522 66.12-8.773 4.78-21.535 8.763-44.664-3.983-23.13-12.746-60.616-47.798-83.746-67.713-23.13-19.916-67.395-40.23-75.37-125.47-7.976-85.239 18.344-98.782 23.927-101.968 5.583-3.187 25.602-6.214 42.67 1.991 19.94 9.56 27.118 13.543 43.867 23.103z" fill="#EAEAEA" fill-rule="nonzero"/><path d="M0 239s78.127 71.66 185.752 127.166c27.902 14.396 40.259 6.798 44.245 6.798 0 0 .797 51.986-23.916 69.58 0 0-16.742 9.598-43.847-3.198-27.106-12.797-74.939-47.187-115.597-83.178C5.98 320.178 2.79 258.595 0 239z" fill="#8F9193" fill-rule="nonzero"/><path d="M140.072 365.824s16.707 11.224 13.525 28.861c-1.91 10.342-6.285 9.54-11.934 5.612-5.171-3.607-9.945-6.814-13.127-9.22-3.182-2.404-11.536-9.219-11.536-24.451 0-15.233 5.808-11.946 10.343-9.621 4.773 2.405 12.729 8.819 12.729 8.819zM48.299 301.377s14.057 10.135 11.356 26.844c-1.588 9.66-5.32 8.948-10.006 5.226-4.686-3.722-8.577-6.493-11.516-8.948-2.7-2.217-9.133-8.235-9.133-22.489 0-14.174 5.083-11.561 8.657-8.948a313.558 313.558 0 0 1 10.642 8.315z" stroke="#606064" fill="#7C7E80" fill-rule="nonzero"/><path d="M145.524 376.383c1.304 6.291-.163 11.937-3.26 12.501-3.098.565-5.135-.806-6.44-7.097-1.304-6.291-1.304-15.082 1.794-15.727 3.097-.646 6.602 4.032 7.906 10.323zM52.524 311.397c1.304 6.299-.163 11.952-3.26 12.517-3.098.565-5.135-1.615-6.44-7.914-1.304-6.3-1.304-14.294 1.794-14.94 3.097-.646 6.602 4.037 7.906 10.337z" fill="#848484" fill-rule="nonzero"/><ellipse stroke="#606064" fill="#7C7E80" fill-rule="nonzero" transform="rotate(-23.086 177.5 424.5)" cx="177.5" cy="424.5" rx="3.5" ry="6.5"/><path d="M177 425c1.333 0 1.333-2 0-2s-1.333 2 0 2z" fill="#000" fill-rule="nonzero"/><ellipse stroke="#636363" fill="#F3F3F3" fill-rule="nonzero" cx="82.5" cy="190.5" rx="4.5" ry="8.5"/><path d="M83 191c1.333 0 1.333-2 0-2s-1.333 2 0 2z" fill="#636363" fill-rule="nonzero"/><path d="M283.029 340.4c-1.7 5.36-6.558 7.92-10.767 6.56-4.21-1.36-6.314-6-4.614-11.44 1.7-5.44 6.557-7.92 10.766-6.56 4.21 1.36 6.315 6 4.615 11.44z" stroke="#2C2C2C" stroke-width="2"/><path d="M267 339.52s1.538-5.52 5.505-5.52c3.966 0 4.776 3.2 7.124 4 2.347.8 3.966-1.2 3.966-1.2" stroke="#2C2C2C" stroke-width="2"/><path d="M271.695 340.88c1.538 0 1.538-2.4 0-2.4s-1.538 2.4 0 2.4z" fill="#2C2C2C" fill-rule="nonzero"/><path d="M375.586 171.709c-38.394-25.81-98.817-62.727-145.272-80.706C195.193 77.418 193.596 75.02 192 79.816l39.112-52.74s3.99-7.99 23.147-1.597c19.157 6.392 78.224 31.963 117.336 56.734 39.111 24.771 110.15 69.52 149.263 101.482 39.111 31.963 70.64 43.949 101.37 41.552 10.377-.8 11.176-1.598 12.772-3.197l-21.551 64.725s-24.744 20.776-91.793-13.584-70.64-50.741-146.07-101.482z" fill="#E4E4E4" fill-rule="nonzero"/><g fill="#2C2C2C" fill-rule="nonzero"><path d="M291.753 335.727v6.54c-.08.394-.24.709-.638.945-.318.158-.637.158-.876-.079a.598.598 0 0 1-.16-.394v-.472c0-5.91-.079-11.819-.079-17.728v-.394c.08-.472.319-.866.717-1.024.08 0 .16-.079.239-.079 1.912-.551 3.903-1.103 5.815-1.654 2.709-.788 4.78.709 5.417 3.073.717 2.6-.239 5.83-2.47 8.036a7.105 7.105 0 0 1-2.947 1.733c-1.513.473-3.107.867-4.62 1.34-.08 0-.24.078-.398.157zm0-1.97c.159-.078.239-.078.398-.078 1.513-.473 3.107-.867 4.62-1.34.16 0 .24-.078.398-.078 1.116-.394 2.072-1.261 2.789-2.443.637-1.024.876-2.127.876-3.23 0-.71-.16-1.418-.478-1.97-.717-1.26-1.832-1.733-3.346-1.418-.637.158-1.195.315-1.832.473-1.036.315-2.071.551-3.107.866-.08 0-.239 0-.318.158v9.061zM331.185 318.867c3.186-.867 5.735 1.26 5.815 4.806 0 3.545-2.55 7.17-5.736 8.036-3.186.946-5.735-1.26-5.815-4.806 0-3.545 2.55-7.09 5.736-8.036zm-3.983 7.563c0 2.364 1.673 4.018 4.062 3.388 2.23-.63 4.063-3.151 4.063-5.673 0-2.6-1.912-4.018-4.063-3.387-2.31.63-4.142 3.23-4.062 5.672zM312.066 330.764c0-2.916 1.753-6.146 4.461-7.564 1.912-1.024 3.585-.945 5.098.079l.24.236c.238.315.238.867-.08 1.26-.319.395-.717.631-1.116.395-.08-.08-.159-.08-.238-.158-2.151-1.576-5.656.394-6.533 3.86-.717 2.916.797 5.122 3.266 4.886 1.275-.158 2.39-.867 3.346-2.049.08-.079.16-.236.24-.315.318-.394.796-.473 1.114-.236.32.236.32.787 0 1.26-.08.079-.159.237-.239.315-.956 1.26-1.991 2.128-3.266 2.6-2.867 1.182-5.656-.236-6.213-3.309-.08-.394-.08-.866-.08-1.26zM307.924 331.945v5.516c0 .551-.399 1.024-.797 1.103-.398.078-.796-.08-.876-.63v-.316c0-3.545 0-7.012-.08-10.557v-.316c.08-.472.319-.866.717-1.024.398-.157.717-.079.876.315 0 .08.08.237.08.316v.315c.08 1.812.08 3.545.08 5.278z"/></g></g></g></svg>
