<?xml version="1.0" encoding="UTF-8" standalone="no"?><svg width="973" height="719" viewBox="0 0 973 719" xmlns="http://www.w3.org/2000/svg"><title>Slice</title><g transform="translate(-472 -430)" fill="none" fill-rule="evenodd"><path d="M574.1 936.9S546 921 527 895s-26.7-75-26.7-75L479 735s12-100 32-135 53-64 129-64c97 0 255-19 255-19l108-20s41-11 54-21c5.7-4.4 13-7 17-7 4.4 0 3.9 1 19 1" fill="#1A1A1A" fill-rule="nonzero"/><path d="M994 509.8V499s45-8 72-20c25.8-11.4 25-15 25-15l9 .3V491l-106 18.8zM478.8 797.7S475 813 509 823c13.4 3.9 34 11 34 11l-1-163s-5.8-2.4-25-12c-12-6-19 7-19 7l-19.2 131.7z" fill="#1A1A1A" fill-rule="nonzero"/><path d="M1223 486.1l-55-10c-41 7-233 41-233 41l-17 1s-50 6-140 21c-108 18-138.3 13.5-198 42-44 21-57 80-57 80l15 8c-4 29.8-6 59.9-6 90 0 49.1 5 80 5 80l-16-6s2 46 30 81c25.5 31.9 61 45 61 45" fill="#4D4D4D" fill-rule="nonzero"/><path d="M1034 506c15-1 20 1 10 2-11.6 1.2-76 13-91 15s-22-1-3-4c0 0 69-12 84-13z" fill="#000" fill-rule="nonzero"/><ellipse fill="#000" fill-rule="nonzero" transform="rotate(-10.19 993.569 522.187)" cx="993.569" cy="522.187" rx="46.099" ry="25.899"/><path d="M998.15 547.678c25.059-4.504 43.32-19.568 40.79-33.646-2.53-14.078-24.895-21.84-49.953-17.336-25.058 4.504-43.32 19.568-40.79 33.646 2.53 14.078 24.896 21.84 49.954 17.336z" stroke="#333" stroke-width="3" stroke-dasharray="1.989943542485335,1.989943542485335"/><ellipse fill="#4D4D4D" fill-rule="nonzero" transform="rotate(-10.19 1001.569 527.187)" cx="1001.569" cy="527.187" rx="46.099" ry="25.899"/><path d="M1006.15 552.678c25.059-4.504 43.32-19.568 40.79-33.646-2.53-14.078-24.895-21.84-49.953-17.336-25.058 4.504-43.32 19.568-40.79 33.646 2.53 14.078 24.895 21.84 49.954 17.336z" stroke="#333" stroke-width="3" stroke-dasharray="1.989943542485335,1.989943542485335"/><path d="M1223 481.1s55 6 79 15 25 23 25 23-581 503-593.8 508.3c-12.8 5.3-61.2-25.3-91.2-42.3-30-17-57-45.1-69-78.1-12-33-23-75-23-130.9 0-74.1 17-151.1 77-186 56-32.5 155-35.1 373-74 0 0 180-31 223-35z" fill="#FFF" fill-rule="nonzero"/><path d="M795 1054.1c-29 0-37.2-17.9-72-31-56-21-72-94.1-72-212.1 0-60 4.4-143.1 51-196 37-42 74-23 147-38 0 0 81.2-23.9 220-47 144-24 222-26 222-26l14.4-6.5s55.6 4.6 87.6 30.6l-598 526z" fill="#B1B0B0" fill-rule="nonzero"/><path d="M1102 999.3c13.4-3.3 24.9-6.2 33.9-8.3 60.9-14.4 206.5-52.3 242.1-93.3 36.1-41.5 56-145 56-200.6 0-34.6-3.8-149.1-52.4-171.6-13.6-6.3-38.2-9.5-73.3-9.5-55 0-128.6 7.9-207.2 22.2-122.8 22.3-290.3 56.3-327.1 93.1-33 33-51.2 112.1-51.2 222.8 0 101.4 10 148.9 38 181.5 8.7 10.1 27.5 15 57.4 15 76.9 0 206.4-32.1 283.8-51.3z" fill="#898A8A" fill-rule="nonzero"/><path d="M1308.4 520c-52.5 0-125.8 7.4-206.4 22.1-132 24-290 57-325 92s-50 121-50 220 9.3 146.7 37 178.9c8.4 9.7 28 13.6 54.4 13.6 89.9 0 257.3-45.5 316.6-59.5 81-19.1 208-55.1 240-92 34.3-39.5 55-141 55-198s-9-149-50-168c-13.1-6.1-38.1-9.1-71.6-9.1zm.1-8c35.6 0 60.8 3.3 74.9 9.8 20.6 9.5 35.6 34.8 44.8 75.2 8.5 37.7 9.8 78.8 9.8 100 0 56.2-20.3 161-57 203.2-15.1 17.5-50.4 36-105 55-49.3 17.2-102.9 31-139.2 39.6-9 2.1-20.5 5-33.9 8.3-77.6 19.2-207.4 51.4-284.6 51.4-31.2 0-50.9-5.4-60.4-16.4-28.8-33.4-38.9-81.6-38.9-184.1 0-52.4 4-98 12-135.7 8.9-41.9 22.4-72.2 40.3-90 16.9-16.9 59.4-34 129.8-52.2 50.9-13.2 114.2-26.5 199.5-42 78.8-14.2 152.6-22.1 207.9-22.1z" fill="#666" fill-rule="nonzero"/><ellipse fill="#000" fill-rule="nonzero" transform="rotate(-5.999 817.978 561.986)" cx="817.978" cy="561.986" rx="23.999" ry="5"/><ellipse fill="#FFF" fill-rule="nonzero" transform="rotate(-5.999 817.978 561.986)" cx="817.978" cy="561.986" rx="23.999" ry="5"/><ellipse fill="#000" fill-rule="nonzero" transform="rotate(-78.229 599.164 676.055)" cx="599.164" cy="676.055" rx="18.701" ry="11.3"/><ellipse fill="#FFF" fill-rule="nonzero" transform="rotate(-78.229 599.164 676.055)" cx="599.164" cy="676.055" rx="18.701" ry="11.3"/><ellipse stroke="#B1B0B0" stroke-width="2" fill="#FFF" fill-rule="nonzero" transform="rotate(-78.229 599.159 677.052)" cx="599.159" cy="677.052" rx="11.2" ry="6.7"/><ellipse fill="#000" fill-rule="nonzero" cx="879" cy="547" rx="4" ry="1"/><path d="M685 767c1-7-1-16-7-16s-7 2-9 10-4 39-4 68 5 75 5 79 4 11 11 14 5-9 5-9-4-52-5-81c0 0 3-58 4-65z" stroke="#666" stroke-width="4"/><path d="M685 767c1-7-1-16-7-16s-7 2-9 10-4 39-4 68 5 75 5 79 4 11 11 14 5-9 5-9-4-52-5-81c0 0 3-58 4-65z" fill="#898A8A" fill-rule="nonzero"/><path d="M676 786v-3"/><path fill="#000" fill-rule="nonzero" d="M680 783v-4l-4-1v-4M680.5 898.5l-8-4v-4M577 812c0 10 7 22 12 22s9-3 9-10v-31c0-18-8-28-12-28s-9 2-9 12v35z"/><path d="M577 812c0 10 7 22 12 22s9-3 9-10v-31c0-18-8-28-12-28s-9 2-9 12v35z" fill="#FFF" fill-rule="nonzero"/><path d="M605.1 680.7s.9 1.3-2.1-1.7 0-6-3-9-7 4-7 4" stroke="#B1B0B0" stroke-width="2" fill="#FFF" fill-rule="nonzero"/><path d="M597 676l1-1" stroke="#B1B0B0" stroke-width="2"/><path fill="#1A1A1A" fill-rule="nonzero" d="M828.3 524.2l38.5-4.2-7 5.2-30.3 4.3-1.2-4.3"/><path d="M1420 569s2.3 5.2 4.7 14.5c2.3 8.7 5.3 20.9 7.1 32.5 3.8 23.6-11.5-17.1-11.5-17.1s-4.5-18.3-7.4-25.8c-2.9-7.6 7.1-4.1 7.1-4.1z" fill="#666" fill-rule="nonzero"/><path fill="#1A1A1A" fill-rule="nonzero" d="M909.1 514.4l26.2-4.9 2.3 5.2-29.2 3.8z"/><path d="M1057.2 1033.5s85.8 6.5 191.5-47.5l-2-30.5 38.5 24-32.5 67-2-30.5s-60.7 41-192.5 52.5l-1.5 32-69.5-50.5 70.5-51-.5 34.5zM867 483.1s134.6-59.3 244.6 31.3l24.7-3.3v44l-94-30.7 28-2c-.1 0-67.9-80.7-203.3-39.3zM671 688.3l18.5 9.3-8-90-62.3 57.7 17.2 4.6s-37.3 127.7 1.3 265l-18.9-10.1 62.7 78.8 7.5-40-18.7-11.3s-40.3-87.3.7-264z" fill="#FD603A" fill-rule="nonzero" opacity=".88"/><path d="M1369.7 768.7V852"/></g></svg>
