<?xml version="1.0" encoding="UTF-8" standalone="no"?><svg width="1768" height="1066" viewBox="0 0 1768 1066" xmlns="http://www.w3.org/2000/svg"><title>Slice</title><g fill="none" fill-rule="evenodd"><g transform="translate(987 76)"><path d="M17.902 135s-7.406 0-7.854 4.683C8.926 151.39 28 145.537 28 145.537L17.902 135z" fill="#CBCBCB" fill-rule="nonzero"/><path d="M256 323s-7.524 44.086-61.578 60.935c-54.054 16.85-31.946-1.73-31.946-1.73l35.882-49.626L256 323z" fill="#BCBCBC" fill-rule="nonzero"/><path d="M193.705 240.238S182.277 281.45 252 311.726L249.114 326 166 266.14V227l27.705 13.238z" fill="#BCBCBC" fill-rule="nonzero"/><path d="M178.494 236s1.15 43.408 55.676 67.524c10.353 4.593 10.353 5.742 16.105 6.89 5.751 1.148 9.778 12.288-1.15 26.412-11.504 14.93-20.707 22.968-31.06 27.561-10.352 4.594-26.572 8.613-26.572 8.613l-15.99-6.316L164 298.93 178.494 236z" fill="#EEE" fill-rule="nonzero"/><path d="M190.605 150.725s6.401-4.025 5.258 20.125c-1.143 24.15-1.143 36.8 0 70.15L173 235.25l5.716-86.25 11.889 1.725z" fill="#A0A0A0" fill-rule="nonzero"/><path d="M38.583 420S31 415.744 31 394.464s3.5-164.951 3.5-176.224c0-11.273 5.017-22.776 11.9-23.236 6.767-.46 19.6 35.774 19.6 35.774l-14 181.17L38.583 420z" fill="#C0C0C0" fill-rule="nonzero"/><path d="M72.21 878.79c-8.775-48.5-45.496-216.58-33.487-471.177 4.62-97.922 31.41-132.137-16.166-254.598C-7.467 75.83-.538 57.397 27.176 27.445c27.714-29.953 98.153-40.321 125.867-5.76 27.714 34.56 28.869 56.449 31.178 93.313 2.31 36.865 0 32.257 9.238 36.865 0 0-17.32 44.93-15.011 114.05 2.31 69.122 15.011 127.875 20.785 124.42 5.774-3.457-11.547 3.455-12.702 21.888 0 0 5.774 167.043 13.857 258.053 8.083 91.01 19.169 207.134 10.393 222.341 0 0-12.703 5.76-10.393 23.04 0 0-2.31 6.913-15.012 16.129 0 0-10.392-1.152-12.702 11.52 0 0-15.012 17.28-50.809 11.52-35.797-5.76-39.261-18.432-49.654-76.033z" fill="#D6D6D6" fill-rule="nonzero"/><path d="M72.253 878.423c-8.781-48.479-45.525-216.486-33.508-470.973 4.622-97.88 31.429-132.08-16.176-254.487C-7.473 75.81-.541 57.386 27.19 27.447 43.714 9.597 75.373-1.457 104.03.155c0 .23-27.731 32.473-16.177 447.022 11.555 414.55 38.94 507.938 38.13 507.823-40.44-4.606-43.33-19-53.729-76.577z" fill="#F1F1F1" fill-rule="nonzero"/><path d="M116.069 362C104.689 362 99 353.702 99 346.44V172.408c0-7.261 6.828-14.407 17.069-14.407S132 165.146 132 172.407V346.44c0 7.26-4.552 15.559-15.931 15.559z" fill="#F1F1F1" fill-rule="nonzero"/><ellipse stroke="#3A3A3A" stroke-width=".5" transform="rotate(-77.209 11.5 66)" cx="11.5" cy="66" rx="17.5" ry="7"/><path d="M11.947 67c1.404 0 1.404-2 0-2-1.263 0-1.263 2 0 2z" fill="#3A3A3A" fill-rule="nonzero"/></g><g transform="translate(502 36)"><path d="M1.04 327.176C5.53 222.28 14.343 142.359 15.175 117.384 16.008 92.408 45.944 0 148.226 0c102.282 0 127.23 84.916 132.219 119.881 4.99 34.966 6.652 67.433 6.652 67.433s3.327 0 3.327 3.33 4.989 44.123 7.484 189.812c0 0 .831 1.665-2.495 2.498 0 0 4.906 257.411-18.294 489.515C267.97 964.045 209.762 1009 149.889 1009c-59.872 0-126.397-38.295-133.881-142.359C8.524 762.578.208 560.278.208 511.993c0-48.286-.832-145.69.831-184.817z" fill="#DFDFDF" fill-rule="nonzero"/><path d="M12.247 343.837C9.164 288.957 33.905 93.17 147.197 94.003c113.292.832 139.116 142.405 140.782 249.834 1.666 107.43-96.631 130.747-137.45 129.082-40.818-1.666-131.618-9.16-138.282-129.082z" fill="#BEBEBE" fill-rule="nonzero"/><circle stroke="#A5A5A5" fill="#D6D6D6" fill-rule="nonzero" cx="150" cy="343" r="129"/><path d="M173.392 160h-46.784c-5.264 0-9.608-4.296-9.608-9.5s4.344-9.5 9.608-9.5h46.784c5.264 0 9.608 4.296 9.608 9.5s-4.344 9.5-9.608 9.5z" fill="#CECECE" fill-rule="nonzero"/><g transform="translate(77 43)"><circle fill="#DBDBDB" fill-rule="nonzero" cx="22" cy="22" r="22"/><circle stroke="#A3A3A3" cx="22.249" cy="21.834" r="18.098"/></g><path d="M98.585 65.83c1.577 0 1.577-2.49 0-2.49s-1.577 2.49 0 2.49z" fill="#656565" fill-rule="nonzero"/><g transform="translate(183 43)"><circle fill="#DBDBDB" fill-rule="nonzero" cx="22" cy="22" r="22"/><circle stroke="#A3A3A3" cx="22.249" cy="21.834" r="18.098"/></g><path d="M204.585 65.83c1.577 0 1.577-2.49 0-2.49s-1.577 2.49 0 2.49z" fill="#656565" fill-rule="nonzero"/><circle stroke="#656565" cx="150.5" cy="616.5" r="51.5"/><g fill="#AFAFAF" fill-rule="nonzero"><path d="M150.583 582.667c18.539 0 34.168 15.083 34.084 34.416-.083 18.75-15.047 34.167-34.167 34.167-19.702 0-34.25-16.167-34.167-34.417.083-18.833 15.296-34.333 34.25-34.166zm25.854 43.833c-.249-.083-.415-.083-.582-.167-1.163-.333-2.41-.5-3.574-.916-3.16-1-6.069-2.5-8.812-4.334-3.824-2.5-7.4-5.5-10.724-8.666-1.497-1.5-3.076-2.917-4.905-4.084-1.497-1.083-3.076-1.916-4.822-2.583-2.245-.833-4.572-1.083-6.983-.75-2.577.417-4.822 1.5-6.983 3-2.245 1.583-4.157 3.583-5.903 5.833-.415.5-.498 1-.582 1.667-.166 3.167.25 6.25 1.164 9.333 4.24 14 18.539 22.417 32.755 19.084 9.227-2.167 15.712-7.834 19.453-16.5.332-.167.415-.5.498-.917zm1.497-6.5c1.829-10.75-4.822-25.667-20.118-29.917-6.983-1.916-13.8-1.166-20.285 2.167-4.24 2.25-9.31 7-10.225 9.583.333-.25.665-.416.914-.583.582-.333 1.247-.75 1.913-1.083 3.907-1.75 7.98-2.167 12.22-1.25 3.325.666 6.318 2.166 9.145 4.083 2.078 1.417 3.907 3 5.653 4.75a62.12 62.12 0 0 0 6.65 5.75c2.162 1.667 4.406 3.167 6.9 4.333 1.912.917 3.824 1.667 5.903 2 .415.167.914.334 1.33.167z"/><path d="M135.869 613.667c2.41 0 4.24 1.916 4.24 4.333 0 2.417-1.996 4.25-4.407 4.25-2.327-.083-4.156-1.917-4.156-4.25a4.299 4.299 0 0 1 4.323-4.333z"/></g><path d="M150.031 889c5.292 0 5.292-8 0-8-5.375 0-5.375 8 0 8z" fill="#C9C9C9" fill-rule="nonzero"/></g><circle stroke="#FD603A" stroke-width="3" cx="652.5" cy="182.5" r="61"/><path d="M55.499 68.5H591.5" stroke="#FD603A" stroke-width="3" stroke-linecap="square"/><text font-family="Verdana" font-size="34" fill="#000"><tspan x="54" y="51">Pvr_KeyCode.APP</tspan></text><path d="M591.5 68.5l50.522 50.522" stroke="#FD603A" stroke-width="3" stroke-linecap="square"/><circle stroke="#FD603A" stroke-width="3" cx="652.5" cy="652.5" r="61"/><path d="M55.499 764.5H591.5" stroke="#FD603A" stroke-width="3" stroke-linecap="square"/><text font-family="Verdana" font-size="34" fill="#000"><tspan x="54" y="747">Pvr_KeyCode.HOME</tspan></text><path d="M591.5 764.5l50.522-50.522" stroke="#FD603A" stroke-width="3" stroke-linecap="square"/><circle stroke="#FD603A" stroke-width="3" cx="652.5" cy="372.5" r="61"/><path d="M48.5 268.5h543" stroke="#FD603A" stroke-width="3" stroke-linecap="square"/><text font-family="Verdana" font-size="34" fill="#000"><tspan x="48" y="251">Pvr_KeyCode.TOUCHPAD</tspan></text><path d="M590.5 268.5l45.573 45.573" stroke="#FD603A" stroke-width="3" stroke-linecap="square"/><circle stroke="#FD603A" stroke-width="3" cx="1102.5" cy="272.5" r="61"/><path d="M1208.577 184.5h492.911" stroke="#FD603A" stroke-width="3" stroke-linecap="square"/><text font-family="Verdana" font-size="34" fill="#000"><tspan x="1275" y="167">Pvr_KeyCode.VOLUMEUP</tspan></text><path d="M1207.5 184.5l-50.522 50.522" stroke="#FD603A" stroke-width="3" stroke-linecap="square"/><circle stroke="#FD603A" stroke-width="3" cx="1102.5" cy="399.5" r="61"/><path d="M1206.577 315.5h492.911" stroke="#FD603A" stroke-width="3" stroke-linecap="square"/><text font-family="Verdana" font-size="34" fill="#000"><tspan x="1205" y="301">Pvr_KeyCode.VOLUMEDOWN</tspan></text><path d="M1205.5 315.5l-50.522 50.522" stroke="#FD603A" stroke-width="3" stroke-linecap="square"/><circle stroke="#FD603A" stroke-width="3" cx="1243" cy="420" r="61.5"/><path d="M1290.5 533.5h419.987" stroke="#FD603A" stroke-width="3" stroke-linecap="square"/><text font-family="Verdana" font-size="34" fill="#000"><tspan x="1315" y="519">Pvr_KeyCode.TRIGGER</tspan></text><path d="M1286.49 533.5l-51.493-50.522" stroke="#FD603A" stroke-width="3" stroke-linecap="square"/></g></svg>
