<?xml version="1.0" encoding="UTF-8" standalone="no"?><svg width="1518" height="892" viewBox="0 0 1518 892" xmlns="http://www.w3.org/2000/svg"><title>PicoGoblinButtons</title><g fill="none" fill-rule="evenodd"><g transform="translate(280)"><path d="M59 118l296-47s99-9 278 73 237 174 237 174l-4 26-55 7-193-98c-167-70-266-74-266-74L54.4 232" fill="#3C3C3C" fill-rule="nonzero"/><path d="M374.1 773.9S346 758 327 732s-26.7-75-26.7-75L279 572s12-100 32-135 53-64 129-64c97 0 255-19 255-19l108-20s41-11 54-21c5.7-4.4 13-7 17-7 4.4 0 3.9 1 19 1L374.1 773.9zM187 31l58-13-45-10c-15 0-19 17-19 17l6 6z" fill="#1A1A1A" fill-rule="nonzero"/><path d="M172 49s1-15 9-24c6.2-6.9 51.2-9.6 92-3 52.6 8.5 90 27 90 27s47 7 53 8 19 7 16 19-22 102-25 117-12 19-25 16-85-16-175-4-137 48-137 48l-32-8 21-127s1-20 49-41c42.9-18.8 60-20 60-20s4-1 4-8z" fill="#000" fill-rule="nonzero"/><path d="M73 123l-14-5c-6.7 6.5-12.4 13.9-17 22-4.9 8.7-9.3 17.7-13 27l-8 71 32-2 20-113z" fill="#1A1A1A" fill-rule="nonzero"/><path d="M89 316c72 81 228 180 228 180l-47 103S152.4 520 73 444C-22 353 4 289.6 4 289.6l25-122S10.2 227.4 89 316z" fill="#4D4D4D" fill-rule="nonzero"/><path d="M775 318s-23-49-168-156S278 48 278 48l-21-18s-65-3-67 8 3.7 15.9 9 17c5 1 12.2-.4 30 3 50.5 9.6 161.3 37.6 253 90 119 68 203 178 203 178l90-8z" fill="#000" fill-rule="nonzero"/><path fill="#1A1A1A" fill-rule="nonzero" d="M712 373l102.7-22.4L772 296l-91 15-6 14z"/><path d="M794 346.8V336s45-8 72-20c25.8-11.4 25-15 25-15l9 .3V328l-106 18.8zM278.8 634.7S275 650 309 660c13.4 3.9 34 11 34 11l-1-163s-5.8-2.4-25-12c-12-6-19 7-19 7l-19.2 131.7z" fill="#1A1A1A" fill-rule="nonzero"/><path d="M1023 323.1l-55-10c-41 7-233 41-233 41l-17 1s-50 6-140 21c-108 18-138.3 13.5-198 42-44 21-57 80-57 80l15 8c-4 29.8-6 59.9-6 90 0 49.1 5 80 5 80l-16-6s2 46 30 81c25.5 31.9 61 45 61 45" fill="#4D4D4D" fill-rule="nonzero"/><path d="M834 343c15-1 20 1 10 2-11.6 1.2-76 13-91 15s-22-1-3-4c0 0 69-12 84-13z" fill="#000" fill-rule="nonzero"/><ellipse fill="#000" fill-rule="nonzero" transform="rotate(-10.19 793.571 359.207)" cx="793.571" cy="359.207" rx="46.099" ry="25.899"/><path d="M798.153 384.697c25.058-4.503 43.32-19.567 40.79-33.645-2.53-14.079-24.895-21.84-49.953-17.336-25.058 4.504-43.32 19.568-40.79 33.646 2.53 14.078 24.895 21.84 49.953 17.335z" stroke="#333" stroke-width="3" stroke-dasharray="1.989943542485335,1.989943542485335"/><ellipse fill="#4D4D4D" fill-rule="nonzero" transform="rotate(-10.19 801.572 364.206)" cx="801.572" cy="364.206" rx="46.099" ry="25.899"/><path d="M806.153 389.697c25.058-4.504 43.32-19.568 40.79-33.646-2.53-14.078-24.895-21.84-49.953-17.335-25.058 4.503-43.32 19.567-40.79 33.645 2.53 14.079 24.895 21.84 49.953 17.336z" stroke="#333" stroke-width="3" stroke-dasharray="1.989943542485335,1.989943542485335"/><path d="M1023 318.1s55 6 79 15 25 23 25 23-581 503-593.8 508.3c-12.8 5.3-61.2-25.3-91.2-42.3-30-17-57-45.1-69-78.1-12-33-23-75-23-130.9 0-74.1 17-151.1 77-186 56-32.5 155-35.1 373-74 0 0 180-31 223-35z" fill="#FFF" fill-rule="nonzero"/><path d="M595 891.1c-29 0-37.2-17.9-72-31-56-21-72-94.1-72-212.1 0-60 4.4-143.1 51-196 37-42 74-23 147-38 0 0 81.2-23.9 220-47 144-24 222-26 222-26l14.4-6.5s55.6 4.6 87.6 30.6l-598 526z" fill="#B1B0B0" fill-rule="nonzero"/><path d="M902 836.3c13.4-3.3 24.9-6.2 33.9-8.3 60.9-14.4 206.5-52.3 242.1-93.3 36.1-41.5 56-145 56-200.6 0-34.6-3.8-149.1-52.4-171.6-13.6-6.3-38.2-9.5-73.3-9.5-55 0-128.6 7.9-207.2 22.2-122.8 22.3-290.3 56.3-327.1 93.1-33 33-51.2 112.1-51.2 222.8 0 101.4 10 148.9 38 181.5 8.7 10.1 27.5 15 57.4 15 76.9 0 206.4-32.1 283.8-51.3z" fill="#898A8A" fill-rule="nonzero"/><path d="M1108.4 357c-52.5 0-125.8 7.4-206.4 22.1-132 24-290 57-325 92s-50 121-50 220 9.3 146.7 37 178.9c8.4 9.7 28 13.6 54.4 13.6 89.9 0 257.3-45.5 316.6-59.5 81-19.1 208-55.1 240-92 34.3-39.5 55-141 55-198s-9-149-50-168c-13.1-6.1-38.1-9.1-71.6-9.1zm.1-8c35.6 0 60.8 3.3 74.9 9.8 20.6 9.5 35.6 34.8 44.8 75.2 8.5 37.7 9.8 78.8 9.8 100 0 56.2-20.3 161-57 203.2-15.1 17.5-50.4 36-105 55-49.3 17.2-102.9 31-139.2 39.6-9 2.1-20.5 5-33.9 8.3-77.6 19.2-207.4 51.4-284.6 51.4-31.2 0-50.9-5.4-60.4-16.4C529.1 841.7 519 793.5 519 691c0-52.4 4-98 12-135.7 8.9-41.9 22.4-72.2 40.3-90 16.9-16.9 59.4-34 129.8-52.2 50.9-13.2 114.2-26.5 199.5-42 78.8-14.2 152.6-22.1 207.9-22.1z" fill="#666" fill-rule="nonzero"/><ellipse fill="#000" fill-rule="nonzero" transform="rotate(-5.999 617.968 399.012)" cx="617.968" cy="399.012" rx="23.999" ry="5"/><ellipse fill="#FFF" fill-rule="nonzero" transform="rotate(-5.999 617.968 399.012)" cx="617.968" cy="399.012" rx="23.999" ry="5"/><ellipse fill="#000" fill-rule="nonzero" transform="rotate(-78.229 399.102 513.057)" cx="399.102" cy="513.057" rx="18.701" ry="11.3"/><ellipse fill="#FFF" fill-rule="nonzero" transform="rotate(-78.229 399.102 513.057)" cx="399.102" cy="513.057" rx="18.701" ry="11.3"/><ellipse stroke="#B1B0B0" stroke-width="2" fill="#FFF" fill-rule="nonzero" transform="rotate(-78.229 399.097 514.059)" cx="399.097" cy="514.059" rx="11.2" ry="6.7"/><ellipse fill="#000" fill-rule="nonzero" cx="679" cy="384" rx="4" ry="1"/><path d="M485 604c1-7-1-16-7-16s-7 2-9 10-4 39-4 68 5 75 5 79 4 11 11 14 5-9 5-9-4-52-5-81c0 0 3-58 4-65z" stroke="#666" stroke-width="4"/><path d="M485 604c1-7-1-16-7-16s-7 2-9 10-4 39-4 68 5 75 5 79 4 11 11 14 5-9 5-9-4-52-5-81c0 0 3-58 4-65z" fill="#898A8A" fill-rule="nonzero"/><path d="M476 623v-3"/><path d="M480 620v-4l-4-1v-4l4 9zm.5 115.5l-8-4v-4l8 8zM377 649c0 10 7 22 12 22s9-3 9-10v-31c0-18-8-28-12-28s-9 2-9 12v35z" fill="#000" fill-rule="nonzero"/><path d="M377 649c0 10 7 22 12 22s9-3 9-10v-31c0-18-8-28-12-28s-9 2-9 12v35z" fill="#FFF" fill-rule="nonzero"/><path d="M257.3 460.4c12.6 4.8 30.4 21.2 38.7 35.6 11 19 22 20 22 20l-21 120s3 4-14 0-8-14-32-34c-25-20.8-29-20-29-20l25-122c2.5-1.5 6.1-1.2 10.3.4z" fill="#000" fill-rule="nonzero"/><path d="M405.1 517.7s.9 1.3-2.1-1.7 0-6-3-9-7 4-7 4" stroke="#B1B0B0" stroke-width="2" fill="#FFF" fill-rule="nonzero"/><path d="M397 513l1-1" stroke="#B1B0B0" stroke-width="2"/><path d="M257 2s29-8 63 16 54 29 54 29-63 11-81 9-80-48-95-48l59-6z" fill="#3C3C3C" fill-rule="nonzero"/></g><circle stroke="#FD603A" stroke-width="3" cx="760.5" cy="730.5" r="34"/><path d="M1.577 815.5H698.5" stroke="#FD603A" stroke-width="3" stroke-linecap="square"/><text fill="#7B7B7B" font-family="Verdana" font-size="34"><tspan x="0" y="801">Volume Down Button</tspan></text><circle stroke="#FD603A" stroke-width="3" cx="760.5" cy="600.5" r="34"/><circle stroke="#FD603A" stroke-width="3" cx="664.5" cy="635.5" r="34"/><path d="M1.577 735.5h686.92" stroke="#FD603A" stroke-width="3" stroke-linecap="square"/><text fill="#7B7B7B" font-family="Verdana" font-size="34"><tspan x="0" y="721">Volume Up Button</tspan></text><path d="M7.577 580.5h567.92" stroke="#FD603A" stroke-width="3" stroke-linecap="square"/><text fill="#000" font-family="Verdana" font-size="34"><tspan x="0" y="566">KeyCode.JoystickButton0</tspan></text><path d="M750.5 765.5l-50.522 50.522M577.5 580.5l50.522 50.522" stroke="#FD603A" stroke-width="3" stroke-linecap="square"/><circle stroke="#FD603A" stroke-width="3" cx="680.5" cy="510.5" r="34"/><path d="M8.577 455.5h582.92" stroke="#FD603A" stroke-width="3" stroke-linecap="square"/><text fill="#7B7B7B" font-family="Verdana" font-size="34"><tspan x="0" y="441">Home Button</tspan></text><path d="M593.5 455.5l50.522 50.522" stroke="#FD603A" stroke-width="3" stroke-linecap="square"/><circle stroke="#FD603A" stroke-width="3" cx="900.5" cy="400.5" r="34"/><path d="M2.5 335.5h840" stroke="#FD603A" stroke-width="3" stroke-linecap="square"/><text fill="#7B7B7B" font-family="Verdana" font-size="34"><tspan x="0" y="321">Power Button</tspan></text><path d="M843.5 335.5l41 34m-134 266l-61 99" stroke="#FD603A" stroke-width="3" stroke-linecap="square"/></g></svg>
