<?xml version="1.0" encoding="UTF-8" standalone="no"?><svg width="1888" height="1248" viewBox="0 0 1888 1248" xmlns="http://www.w3.org/2000/svg" xmlns:xlink="http://www.w3.org/1999/xlink"><title>PicoNeoButtons</title><defs><circle id="a" cx="207" cy="207" r="207"/><circle id="c" cx="207" cy="207" r="207"/></defs><g transform="translate(1)" fill="none" fill-rule="evenodd"><path d="M1249 1173s102 38 270 0 5 40 5 40-129 44-288 0 13-40 13-40z" fill="#000" fill-rule="nonzero"/><path d="M931 812s18-128 62-135 54.3 44 54.3 44-13.3 38-21.3 112-95-21-95-21z" fill="#282828" fill-rule="nonzero"/><path d="M1242 1230s25-64 16-120c-3-34-10-24-48-44s-128-78-159-137-17-183 0-217-11 8-11 8-5 93-35 97-8 230 23 257 214 156 214 156z" fill="#3A3A3A" fill-rule="nonzero"/><path d="M1242 1230s7-40-6-54-121-49-185-127-33-228-38-237-76-10-76-10l5 158s24 144 115 199 120 73 185 71z" fill="#2C2D2D" fill-rule="nonzero"/><path fill="#282828" fill-rule="nonzero" d="M1761 718v115l25 30h36l43-30-16-108-36-42z"/><path d="M1524 1230s-9-3-14-107c0-30-4-37 24-46s132-67 184-142 36-214 36-214l12 8s-9 86 33 120-64 240-64 240l-135 95-76 46z" fill="#3A3A3A" fill-rule="nonzero"/><path d="M1524 1230s3-56 18-61 88-28 164-91 90-219 88-230 19-18 71-13c0 0-18 162-55 212s-128 170-268 187l-18-4z" fill="#2C2D2D" fill-rule="nonzero"/><path d="M988 689s131 124 418 123 408-100 416-118-124-131-409-129-394 88-394 88l-31 36z" fill="#88898A" fill-rule="nonzero"/><path d="M1694 1163c45.7-35.8 94.5-91.5 122-152 20-44 18-49 8-58-11-10 6-46 7-61s.4-43.3 14-46c10-2 9-7 9-20 0-20-3-66-16-89s-44.8-93.8-188-133c-106-29-322-39-390-21s-178 21-267 117c0 0 27 17 14 31s-25 13-35 10-10 6-12 12-14 46-15 64c0 0 16-3.1 15 25-1 29 1 61 2 76s5 27-10 31c0 0 6 104 90 184s200 94 200 94-2 13-6 16-82-13-82-13-86-39-112-66-102-97-121-218-3-233 58-279 163-104 302-113 349-5 444 46 147 85 157 179-37 267-100 332-126 113-188 126l-16-2.1s-38.2 15.1-48 8.1c-7-5-6-13-6-13s96-9 170-67z" fill="#757678" fill-rule="nonzero"/><path d="M1168 1241s5 4 12 0 30 5 35 5 17 4 21-3c0 0-55.9-3.3-96.4-23.1-40.6-19.9.4 11.1.4 11.1s20 8 28 10zm362 2s3 7 24 3 22-11 34-3c6 4 38-12 38-12l-3-10s-45 18-93 22z" fill="#484544" fill-rule="nonzero"/><path d="M1626 1231s156-62 213-205 53.3-249.9 36.7-298.9c-16.6-49-82.7-134.1-82.7-134.1l-250-74-223-4-324 87-64 110s-12 33-20 62-2 129 5 177 53 206 223 280l2-10s-165.2-73.2-206-227c-17-64-19-137-18-178s20-117 84-162 127-68 188-81 252-36 439 3 226 132 237 156 22 99-13 233-137 207.3-177 230c-37 21-55 26-55 26l5 10zM996.8 451.6S982 454 984 414s80-67 80-67l17 35-49 62-35.2 7.6zM1796 461s24-2 18-32-48-55-48-55l-5 14 35 73z" fill="#C2C1C0" fill-rule="nonzero"/><path d="M1032 515c118-197 224-203 224-203v-41l301 16v28s117 20 213 200l-60-41s-63-68-162-87c-23.9-4.6-73-17-148-15-55.6 1.5-124 4.1-175 21-90.1 29.8-126 79-126 79s-185 240-67 43z" fill="#A8A7A8" fill-rule="nonzero"/><path d="M1000.5 450.5s-19 10-22-27-14.2-103.8-21-306c-3-89 67-96 113-104 0 0 287.9-28.8 607 0 177 16 171 80 170 110s-9.1 160.1-26 284c-3 22-2 55-26 53 0 0 50-9-18-71s-198-104-375-104-263 29-348 76-70 95-54 89z" fill="#DDD" fill-rule="nonzero"/><path d="M1386 416c188 1 299.2 19.7 402 109 38 33 50 71 62 109s34 117 35 127c0 0-8-96-133-154s-260-61-312-62-218-7-355 49-154 134-173 180c0 0 24-102 31-125s18-81 80-132 175-102 363-101z" fill="#E4E4E4" fill-rule="nonzero"/><path d="M1846.4 913c-6 0-10.2-4.3-9.2-9.5l1.8-10c1-5.2 6.7-9.5 12.7-9.5 6 0 10.2 4.3 9.2 9.5l-1.8 10c-1 5.2-6.7 9.5-12.7 9.5zm16.1-41h-18c-1.1 0-1.7-1.9-1.5-3 .2-1.1 1.4-3 2.5-3h18c1.1 0 1.7 1.9 1.5 3-.2 1.1-1.4 3-2.5 3zm-931.6 11l22 1-.7-19s.6-12-11.4-12-10.5 12-10.5 12l.6 18zm22.2 4l-22-1 .7 19s-.6 12 11.4 12 10.5-12 10.5-12l-.6-18z" fill="#898989" fill-rule="nonzero"/><g transform="translate(447 154)"><mask id="b" fill="#fff"><use xlink:href="#a"/></mask><g fill-rule="nonzero" mask="url(#b)"><path d="M194 44.178s35.133-249.262 121.015-262.893C400.896-232.346 421-133.032 421-133.032s-25.96 74-41.574 218.104C363.81 229.176 194 44.178 194 44.178z" fill="#282828"/><path d="M799.986 858s48.753-124.68 31.202-233.773c-5.85-66.236-19.5-46.755-93.606-85.717-74.104-38.963-249.615-151.953-310.069-266.892-60.453-114.938-33.152-356.504 0-422.74 33.152-66.236-21.451 15.585-21.451 15.585s-9.75 181.174-68.254 188.967c-58.504 7.792-15.601 448.065 44.853 500.664C443.114 606.694 799.986 858 799.986 858z" fill="#3A3A3A"/><path d="M800.333 858.711s13.64-78.01-11.692-105.314c-25.332-27.303-235.785-95.562-360.497-247.683-124.712-152.12-64.305-444.66-74.048-462.211C344.353 25.95 206 24 206 24l9.743 308.141S262.51 612.98 439.836 720.243C617.16 827.507 673.672 862.612 800.333 858.711z" fill="#2C2D2D"/><path d="M1680.029 728.57c89.054-69.73 184.15-178.22 237.738-296.061 38.973-85.703 35.076-95.441 15.59-112.971-21.436-19.478 11.691-89.598 13.64-118.815 1.949-29.216.78-84.339 27.281-89.598 19.487-3.895 17.538-13.634 17.538-38.955 0-38.956-5.846-128.553-31.178-173.352-25.333-44.8-87.3-182.702-366.35-259.055-206.56-56.485-627.473-75.963-759.983-40.903-132.51 35.06-346.863 40.903-520.295 227.89 0 0 52.614 33.112 27.282 60.381-25.333 27.269-48.717 25.321-68.204 19.478-19.487-5.843-19.487 11.687-23.384 23.373-3.897 11.687-27.281 89.598-29.23 124.658 0 0 31.179-6.038 29.23 48.694-1.949 56.486 1.949 118.815 3.897 148.031 1.949 29.217 9.744 52.59-19.486 60.381 0 0 11.692 202.57 175.38 358.391C573.183 825.96 799.229 853.23 799.229 853.23s-3.897 25.32-11.692 31.164c-7.794 5.843-159.79-25.321-159.79-25.321S460.16 783.109 409.494 730.519c-50.665-52.59-198.764-188.935-235.79-424.616-37.024-235.68-5.845-453.832 113.024-543.43 118.869-89.597 317.633-202.568 588.499-220.098 270.865-17.53 680.086-9.74 865.21 89.597 185.124 99.337 286.455 165.561 305.941 348.652 19.487 183.091-72.1 520.057-194.867 646.662-122.766 126.606-245.533 220.1-366.35 245.42l-31.179-4.09s-74.44 29.411-93.536 15.777c-13.64-9.739-11.692-25.321-11.692-25.321s187.072-17.53 331.274-130.501l.001-.001z" fill="#757678"/><path d="M1547.606 860s303.953-120.796 415.013-399.406 103.851-486.887 71.507-582.354c-32.343-95.468-161.134-261.27-161.134-261.27l-487.105-144.177L951.39-535 320.102-365.496 195.403-151.18s-23.38 64.295-38.968 120.796c-15.588 56.501-3.897 251.334 9.742 344.853C179.816 407.99 269.443 715.824 600.674 860l3.897-19.483s-321.879-142.618-401.374-442.27c-33.123-124.693-37.02-266.92-35.072-346.801 1.949-79.882 38.969-227.954 163.667-315.629 124.7-87.675 247.45-132.486 366.303-157.814 118.854-25.328 491.002-70.14 855.356 5.845 364.355 75.984 440.343 257.179 461.776 303.938 21.432 46.76 42.865 192.884-25.33 453.96-68.194 261.075-266.933 403.887-344.87 448.114-72.091 40.915-107.163 50.657-107.163 50.657l9.742 19.483z" fill="#C2C1C0"/><path d="M193.282 182.065L236 184l-1.36-36.774S235.807 124 212.506 124c-23.301 0-20.388 23.226-20.388 23.226l1.165 34.839h-.001zm43.436 7.87L194 188l1.36 36.774S194.193 248 217.494 248c23.301 0 20.388-23.226 20.388-23.226l-1.165-34.839h.001z" fill="#898989"/></g></g><circle stroke="#FD603A" stroke-width="23" cx="654" cy="361" r="195.5"/><circle stroke="#FD603A" stroke-width="3" cx="664.5" cy="307.5" r="34"/><path d="M4.5 242.5h602" stroke="#FD603A" stroke-width="3" stroke-linecap="square"/><text transform="translate(11 194)" fill="#7B7B7B" font-family="Verdana" font-size="34"><tspan x="0" y="34">Volume Up</tspan></text><path d="M607.5 242.5l41 34" stroke="#FD603A" stroke-width="3" stroke-linecap="square"/><circle stroke="#FD603A" stroke-width="3" cx="664.5" cy="377.5" r="34"/><path d="M4.5 446.5h602" stroke="#FD603A" stroke-width="3" stroke-linecap="square"/><text transform="translate(11 398)" fill="#7B7B7B" font-family="Verdana" font-size="34"><tspan x="0" y="34">Volume Down</tspan></text><path d="M607.5 446.5l41-34" stroke="#FD603A" stroke-width="3" stroke-linecap="square"/><ellipse fill="#1E1E1E" fill-rule="nonzero" transform="rotate(-83.875 975.079 720.543)" cx="975.079" cy="720.543" rx="6.9" ry="11.3"/><path d="M958.8 92.4c10-65.3 70.5-71.7 111.7-78.9 0 0 287.9-28.8 607 0 146.9 13.3 167.8 59.6 170 92.2.1 1.9-2.7-35.5-120.5-46.7-158.9-15.1-470-16-633-7-133.1 7.3-135.6 42.9-135.2 40.4z" fill="#EAEAEA" fill-rule="nonzero"/><g stroke="#898989"><path d="M1851.2 936.2c-3.3 4.3-9.8 5.7-14.6 3.8-4.9-1.8-6.4-6.1-3.1-10.4 3.3-4.3 9.8-5.7 14.6-3.8 4.8 1.8 6.4 6 3.1 10.4z" stroke-width="2"/><path d="M1831.7 932.9s3.1-4.4 8-3.8c4.9.6 5.1 3.5 7.8 4.5 2.7 1.1 5.1-.4 5.1-.4" stroke-width="2"/><path d="M1837.2 934.8c1.9.2 2.4-1.8.5-2-1.9-.2-2.4 1.7-.5 2z" fill="#2D2D2C" fill-rule="nonzero"/></g><g transform="translate(447 706)"><mask id="d" fill="#fff"><use xlink:href="#c"/></mask><g mask="url(#d)"><path fill="#282828" fill-rule="nonzero" d="M78-132.944v223.61L126.558 149h69.923L280 90.667l-31.077-210L179-201z"/><path d="M-382.416 860s-17.486-5.823-27.2-207.694c0-58.231-7.772-71.819 46.629-89.288 54.4-17.47 256.46-130.051 357.49-275.631C95.533 141.807 64.446-128 64.446-128l23.315 15.528S70.275 54.46 151.876 120.456c81.6 65.996-124.344 465.854-124.344 465.854l-262.29 184.401L-382.415 860h-.001z" fill="#3A3A3A" fill-rule="nonzero"/><path d="M-382 860.242s5.824-108.605 34.944-118.302c29.12-9.697 170.839-54.302 318.382-176.483C118.868 443.276 146.046 140.733 142.164 119.4 138.282 98.066 179.05 84.49 280 94.188c0 0-34.944 314.18-106.774 411.148C101.396 602.305-75.267 835.031-347.056 868L-382 860.242z" fill="#2C2D2D" fill-rule="nonzero"/><path d="M-50.8 731.042c88.772-69.524 183.565-177.695 236.984-295.187 38.85-85.449 34.964-95.159 15.54-112.637-21.368-19.42 11.654-89.333 13.597-118.463 1.942-29.13.777-84.09 27.195-89.333 19.425-3.884 17.482-13.594 17.482-38.84 0-38.84-5.827-128.173-31.08-172.84-25.252-44.666-87.023-182.161-365.187-258.288-205.903-56.319-625.48-75.74-757.57-40.783-132.088 34.957-345.762 40.783-518.643 227.216 0 0 52.447 33.015 27.195 60.203-25.253 27.188-48.562 25.246-67.987 19.42-19.425-5.826-19.425 11.652-23.31 23.304-3.885 11.653-27.195 89.333-29.137 124.29 0 0 31.08-6.02 29.137 48.55-1.942 56.319 1.942 118.463 3.885 147.594 1.942 29.13 9.712 52.434-19.425 60.202 0 0 11.655 201.97 174.824 357.332 163.169 155.361 388.497 182.55 388.497 182.55s-3.885 25.246-11.655 31.072c-7.77 5.826-159.284-25.247-159.284-25.247s-167.054-75.738-217.558-128.173c-50.505-52.434-198.134-188.376-235.04-423.36-36.908-234.984-5.828-452.49 112.663-541.823 118.492-89.333 316.625-201.97 586.63-219.448 270.006-17.478 677.928-9.71 862.464 89.333 184.537 99.043 285.546 165.071 304.97 347.62 19.425 182.55-71.871 518.52-194.248 644.751s-244.753 219.448-365.187 244.695l-31.08-4.079s-74.203 29.325-93.24 15.73c-13.597-9.71-11.654-25.246-11.654-25.246S-194.544 843.68-50.8 731.042z" fill="#757678" fill-rule="nonzero"/><path d="M-183.797 863S119.2 742.637 229.91 465.025c110.71-277.612 103.524-485.14 71.282-580.267-32.242-95.125-160.627-260.333-160.627-260.333l-485.571-143.66-433.13-7.765-629.3 168.897-124.307 213.547s-23.307 64.064-38.846 120.363c-15.538 56.3-3.884 250.433 9.712 343.618 13.596 93.184 102.94 399.916 433.13 543.575l3.884-19.413s-320.866-142.107-400.11-440.685c-33.02-124.246-36.904-265.963-34.962-345.558 1.942-79.595 38.846-227.137 163.152-314.498 124.306-87.36 246.67-132.01 365.15-157.248 118.48-25.238 489.456-69.889 852.663 5.824 363.208 75.712 438.957 256.257 460.322 302.849 21.365 46.592 42.73 192.193-25.25 452.332-67.98 260.14-266.093 402.44-343.784 446.509-71.865 40.768-106.826 50.475-106.826 50.475l9.711 19.413z" fill="#C2C1C0" fill-rule="nonzero"/><path d="M243.92 246c-11.503 0-19.554-8.452-17.637-18.672l3.45-19.656C231.65 197.452 242.578 189 254.08 189c11.503 0 19.554 8.452 17.637 18.672l-3.45 19.656C266.35 237.548 255.422 246 243.92 246zm32.136-79h-35.06c-2.143 0-3.311-3.8-2.922-6 .39-2.2 2.727-6 4.87-6h35.06c2.143 0 3.311 3.8 2.922 6-.39 2.2-2.727 6-4.87 6z" fill="#898989" fill-rule="nonzero"/><g stroke="#898989"><path d="M253.465 291.63c-6.48 8.394-19.243 11.127-28.669 7.418-9.621-3.514-12.567-11.908-6.087-20.302 6.48-8.393 19.244-11.126 28.67-7.417 9.425 3.513 12.566 11.712 6.086 20.301z" stroke-width="2"/><path d="M215.175 285.188s6.087-8.589 15.709-7.418c9.621 1.172 10.014 6.833 15.316 8.785 5.302 2.147 10.015-.781 10.015-.781" stroke-width="2"/><path d="M225.975 288.897c3.73.39 4.712-3.514.981-3.904-3.73-.39-4.712 3.319-.981 3.904z" fill="#2D2D2C" fill-rule="nonzero"/></g></g></g><circle stroke="#FD603A" stroke-width="23" cx="654" cy="913" r="195.5"/><circle stroke="#FD603A" stroke-width="3" cx="703.5" cy="865.5" r="34"/><path d="M.566 800.5h644.929" stroke="#FD603A" stroke-width="3" stroke-linecap="square"/><text transform="translate(11 752)" fill="#000" font-family="Verdana" font-size="34"><tspan x="0" y="34">KeyCode.Escape</tspan></text><path d="M646.5 800.5l41 34" stroke="#FD603A" stroke-width="3" stroke-linecap="square"/><circle stroke="#FD603A" stroke-width="3" cx="694.5" cy="933.5" r="34"/><path d="M3.78 868.5h632.073" stroke="#FD603A" stroke-width="3" stroke-linecap="square"/><text transform="translate(11 820)" fill="#000" font-family="Verdana" font-size="34"><tspan x="0" y="34">KeyCode.JoystickButton0</tspan></text><path d="M637.5 868.5l41 34" stroke="#FD603A" stroke-width="3" stroke-linecap="square"/><circle stroke="#FD603A" stroke-width="3" cx="684.5" cy="999.5" r="34"/><path d="M1.637 934.5H625.14" stroke="#FD603A" stroke-width="3" stroke-linecap="square"/><text transform="translate(11 886)" fill="#7B7B7B" font-family="Verdana" font-size="34"><tspan x="0" y="34">Home Button</tspan></text><path d="M627.5 934.5l41 34" stroke="#FD603A" stroke-width="3" stroke-linecap="square"/></g></svg>
