<?xml version="1.0" encoding="UTF-8" standalone="no"?><svg width="821" height="666" viewBox="0 0 821 666" xmlns="http://www.w3.org/2000/svg"><title>Pico Neo 6DOF</title><g fill="none" fill-rule="evenodd"><g opacity=".7"><path d="M571 529.2V635" stroke="#54A2F5" stroke-width="24"/><path d="M544.9 625.9l26.1 39.8 26.1-39.8z" fill="#54A2F5" fill-rule="nonzero"/></g><g opacity=".7"><path d="M690.2 231.5l108.1-81.4" stroke="#54A2F5" stroke-width="24"/><path d="M791.1 127.3l1 55.9 28.5-49.8" fill="#54A2F5" fill-rule="nonzero"/></g><path d="M571 146.4l-65 23s-44.2 6.4-46 3c-2.2-4.3 30.5-26 50-31 35-9 51-6 51-6l10 11z" fill="#2B2C2F" fill-rule="nonzero"/><path d="M278 225.4l218-98 15 12-59 51s-53 33-102 40-79 22-79 22l7-27z" fill="#2C2D2D" fill-rule="nonzero"/><path d="M466 110.4c1-1 72-1 72-1s14-1-17 26-69 55-69 55l-5.9 2c30.1-21.9 30.9-28 47.9-47s-20-2-62 18-104 62-104 62c-5-1-16.4-.2-16.4-.2S465 111.4 466 110.4z" fill="#4F5152" fill-rule="nonzero"/><path d="M523 132.4c8-7 18-15 13-19s-59.7 18.1-59.7 18.1 8.3-5.6 27.8-14.1c18.6-8.1 42-16 43-15 5.5 5.5 4 0-2.8 12.3S509.4 147 509.4 147L452 190.4c38-28 63-51 71-58z" fill="#616263" fill-rule="nonzero"/><path d="M553.4 96.9l-7.9-4-58 17-175.9 115.3s61.9-43.3 117.9-71.3c56-28 103-47 103-47 4-2 22-8 13 6S507 148.4 507 148.4s12.5-6.5 33.5-26.5 15-22 15-22l-2.1-3z" fill="#A7A7A7" fill-rule="nonzero"/><path d="M160 237.4s96.9-67 38.1-47.2C139.3 210 105 224.4 99 227.4s-5 7-4 11 9 24 9 24l56-25z" fill="#5E5E5D" fill-rule="nonzero"/><path d="M387 107.4l102-59s-5-10-29-27-54-21-65-21-40 6-60 20-41 42-50 70-16.8 53-16.8 53l118.8-36z" fill="#87898A" fill-rule="nonzero"/><path d="M224 185.4c-34 8-106 36-116 40s-12 7-9 15 9 26 9 26 150-89 116-81zM34.5 256.3l-5 15.6 72 2s3-6-4-22-12-13-12-13l-51 17.4z" fill="#2C2D2D" fill-rule="nonzero"/><path d="M13.5 270.9l22 15L85 268.8s-18.5 4.1-41.5-.9 42-29 42-29c-4-1-14 3-14 3-39 10-58 29-58 29z" fill="#979899" fill-rule="nonzero"/><path d="M2.5 277.9l47 27L85 268.8s-23.5 11.1-57.5 6.1 44-33 44-33c-23 5-49 19-49 19-24 11-20 17-20 17z" fill="#A3A4A5" fill-rule="nonzero"/><path d="M9 287.4l61 8 15-26.6s-44 15.6-70 11.6 8-20 8-20c-26 11-22 18-22 18l8 9z" fill="#E8E8E8" fill-rule="nonzero"/><path d="M541 143.4l-8 10-31 19s2-2 14-21 21-16 21-16l4 8z" fill="#313233" fill-rule="nonzero"/><path d="M608 160.4l-47-3-24-22c4 5-25 34-85 55s-107 29-184 85-31 126 3 158 83.8 41.4 83.8 41.4L608 160.4z" fill="#424344" fill-rule="nonzero"/><path d="M574 176.4s-92 51-217 94-200 46-200 46l-4-28s68-10 134-29 109-36 175-64 97-51 97-51c7-5 2-9 2-9l31 25c1 3-1 13-1 13l-17 3z" fill="#A7A7A7" fill-rule="nonzero"/><path d="M759.7 171.7s-143.2-27.8-145.2-25.8-20 24-91 53c-81.8 33.4-118 54-147 77s-45 50-50 69-7.5 49.5-1.5 77.5c11.8 55 59 73 80 81s138.1 53.1 138.1 53.1l216.6-384.8z" fill="#BDBDBD" fill-rule="nonzero"/><path d="M712 176.4c21.4-10.3 46.5-6.5 53.5-2.5s40 21 30 128S730 434.4 701 459.4s-76 69-105 85-45 11-56 5c-8.1-4.4-29.9-27-32-83-.8-20.1.2-42.3 4-72 15-118 102-163 110-168s35-21 35-21c21-12 30-17 55-29z" fill="#EAEAEA" fill-rule="nonzero"/><path d="M738 446.4c-51 45-111 88-145 104s-55 4-55 4c-31-22-30-87-30-87 5 0 20.5 9.5 55.5-8.5 135-69.4 233-159 233-159-3.5 24.5-7.5 101.5-58.5 146.5z" fill="#8F9193" fill-rule="nonzero"/><path d="M637 447.4c5.7-2.9 13-7 13 12s-10.5 27.5-14.5 30.5-10 7-16.5 11.5c-7.1 4.9-12.6 5.9-15-7-4-22 17-36 17-36s10-8 16-11zM749.1 368.1c4.5-3.3 10.9-6.6 10.9 11.3 0 18-8.1 25.6-11.5 28.4-3.7 3.1-8.6 6.6-14.5 11.3-5.9 4.7-10.6 5.6-12.6-6.6-3.4-21.1 14.3-33.9 14.3-33.9s6.3-5.2 13.4-10.5z" stroke="#606064" fill="#7C7E80" fill-rule="nonzero"/><path d="M624.8 458.9c3.8.8 3.8 11.7 2.2 19.5-1.6 7.8-4.1 9.5-7.9 8.8-3.8-.7-5.6-7.7-4-15.5 1.6-7.8 5.9-13.6 9.7-12.8zM740.8 377.9c3.8.8 3.8 10.7 2.2 18.5-1.6 7.8-4.1 10.5-7.9 9.8-3.8-.7-5.6-7.7-4-15.5 1.6-7.8 5.9-13.6 9.7-12.8z" fill="#848484" fill-rule="nonzero"/><ellipse stroke="#606064" fill="#7C7E80" fill-rule="nonzero" transform="rotate(-66.914 574.527 532.44)" cx="574.527" cy="532.44" rx="8" ry="4.5"/><path d="M574.4 533.9c1.9 0 1.9-3 0-3s-1.9 3 0 3z" fill="#000" fill-rule="nonzero"/><ellipse stroke="#636363" fill="#F3F3F3" fill-rule="nonzero" cx="693" cy="239.4" rx="5.5" ry="10.5"/><path d="M693 240.9c1.9 0 1.9-3 0-3s-1.9 3 0 3z" fill="#636363" fill-rule="nonzero"/><path d="M143 342.4c-84 43-115 17-115 17l-27-81c2 2 3 3 16 4 38.5 3 78-12 127-52s138-96 187-127 123-63 147-71 29 2 29 2l49 66c-2-6-4-3-48 14-58.2 22.5-133.9 68.7-182 101-94.5 63.5-99 84-183 127z" fill="#E4E4E4" fill-rule="nonzero"/><path d="M664.8 526.5s41.5-7.3 96-79.4l-1.2-18.8 19 7.2-14.8 63.7-1.1-27.2s-29.5 47.6-97.4 86.8l-.8 29.9-35.8-32.6 36.3-61.4-.2 31.8zM479.3 209.3s89.7-55.5 176.9-.1l19.5-10.2-5.5 41.8-55.4-8.9 20.9-11.8c-.2.1-58.2-54.1-156.4-10.8zM473.5 320.4l14.9 7.5-6.5-72.6-53.3 45.5 16.8 4.7s-30.1 106 1.1 216.7l-19.2-8.8 54.6 61.1 6.8-37.1-15.8-5.3c.1.2-32.5-69.2.6-211.7z" fill="#FD603A" fill-rule="nonzero" opacity=".88"/><g opacity=".7"><path d="M571 222.4V116.6" stroke="#54A2F5" stroke-width="24"/><path d="M597.1 125.7L571 85.8l-26.1 39.9z" fill="#54A2F5" fill-rule="nonzero"/></g><g opacity=".7"><path d="M660.7 339.3L786 362" stroke="#54A2F5" stroke-width="24"/><path d="M778.5 386.3l29.8-21.6-29.8-29.7z" fill="#54A2F5" fill-rule="nonzero"/></g><g opacity=".7"><path d="M324.1 496.2l96-72.3" stroke="#54A2F5" stroke-width="24"/><path d="M332.3 518l-32.9-3.9 32.9-52.1z" fill="#54A2F5" fill-rule="nonzero"/></g><path fill="#BDBDBD" fill-rule="nonzero" d="M410.7 414.3v44.3l16.7-15.6v-42.4z"/><path d="M663.4 315.5l3.3 40.8-35.8-8.6V300s30.5-.8 32.5 1.8 0 13.7 0 13.7z" fill="#EAEAEA" fill-rule="nonzero"/></g></svg>
